<mxfile host="app.diagrams.net" agent="Mozilla/5.0 (Windows NT 10.0; Win64; x64) AppleWebKit/537.36 (KHTML, like Gecko) Chrome/128.0.0.0 Safari/537.36 Edg/128.0.0.0" version="24.7.17">
  <diagram name="第 1 页" id="_pvCDaWZoxReVYvZeunP">
    <mxGraphModel dx="1042" dy="573" grid="1" gridSize="10" guides="1" tooltips="1" connect="1" arrows="1" fold="1" page="1" pageScale="1" pageWidth="827" pageHeight="1169" math="0" shadow="0">
      <root>
        <mxCell id="0" />
        <mxCell id="1" parent="0" />
        <mxCell id="-6CV_cl3STBcPkpSoOHj-6" value="" style="rounded=1;whiteSpace=wrap;html=1;imageWidth=25;imageHeight=20;" vertex="1" parent="1">
          <mxGeometry x="105" y="40" width="50" height="40" as="geometry" />
        </mxCell>
        <mxCell id="-6CV_cl3STBcPkpSoOHj-7" value="" style="rounded=1;whiteSpace=wrap;html=1;imageWidth=25;imageHeight=20;" vertex="1" parent="1">
          <mxGeometry x="105" y="115" width="50" height="40" as="geometry" />
        </mxCell>
        <mxCell id="-6CV_cl3STBcPkpSoOHj-8" value="" style="rounded=1;whiteSpace=wrap;html=1;imageWidth=25;imageHeight=20;" vertex="1" parent="1">
          <mxGeometry x="105" y="190" width="50" height="40" as="geometry" />
        </mxCell>
        <mxCell id="-6CV_cl3STBcPkpSoOHj-9" value="" style="rounded=1;whiteSpace=wrap;html=1;imageWidth=25;imageHeight=20;" vertex="1" parent="1">
          <mxGeometry x="105" y="238" width="50" height="40" as="geometry" />
        </mxCell>
        <mxCell id="-6CV_cl3STBcPkpSoOHj-10" value="" style="rounded=1;whiteSpace=wrap;html=1;imageWidth=25;imageHeight=20;" vertex="1" parent="1">
          <mxGeometry x="105" y="300" width="50" height="40" as="geometry" />
        </mxCell>
      </root>
    </mxGraphModel>
  </diagram>
</mxfile>
